<svg width="35" height="16" viewBox="0 0 35 16" fill="none" xmlns="http://www.w3.org/2000/svg">
<path d="M0.248 15.98V0.499999H2.552V15.98H0.248ZM7.41988 15.98V0.499999H9.72388V15.98H7.41988ZM12.7988 15.98V0.499999H15.1028V15.98H12.7988ZM14.5918 15.98V0.499999H16.8958V15.98H14.5918ZM18.1777 15.98V0.499999H20.4817V15.98H18.1777ZM19.9707 15.98V0.499999H22.2747V15.98H19.9707ZM21.7636 15.98V0.499999H24.0676V15.98H21.7636ZM25.3496 15.98V0.499999H27.6536V15.98H25.3496ZM27.1425 15.98V0.499999H29.4465V15.98H27.1425ZM28.9355 15.98V0.499999H31.2395V15.98H28.9355ZM30.7285 15.98V0.499999H33.0325V15.98H30.7285ZM32.5214 15.98V0.499999H34.8254V15.98H32.5214Z" fill="black"/>
</svg>
